<?xml version="1.0" encoding="utf-8"?>
<!-- Generator: Adobe Illustrator 22.0.1, SVG Export Plug-In . SVG Version: 6.00 Build 0)  -->
<svg version="1.1" id="Layer_1_1_" xmlns="http://www.w3.org/2000/svg" xmlns:xlink="http://www.w3.org/1999/xlink" x="0px" y="0px"
	 width="216px" height="252px" viewBox="0 0 216 252" enable-background="new 0 0 216 252" xml:space="preserve">
<polygon fill="#348899" points="14.4,18.8 14.5,16.6 12.1,16.5 8.7,16.3 8.5,15.2 8.5,14.3 8.1,13.6 8.2,12.9 7.8,11.8 7.5,11.3 
	7.4,9.9 7.1,9.2 6.3,8.9 5.4,8 5.5,7.9 6,6.7 6.3,5.9 6.5,4.5 6.7,3.9 6.5,3.7 6.6,2.9 6.5,2.6 10.4,2.8 15.8,3 17.1,3.1 17.8,3 
	19.5,3.1 19.3,3.3 19.4,4.1 19,4.7 18.7,5.3 18.2,5.2 17.9,5.8 17.2,5.6 17,6.5 16.6,7.1 16,7.1 15.9,7.2 16.2,8 16.5,8.2 16.2,8.5 
	16.3,9.6 16.7,10.2 16.6,10.8 16,11.4 16.2,12.2 15.9,12.2 15.5,13 15.5,13.4 15.5,13.6 15.9,13.6 16.1,14 15.8,14.4 16.1,14.8 
	16.7,15 17,16.6 17.3,16.9 17.1,17.6 16.7,17.8 16.6,17.9 16.7,18.4 16.4,18.8 "/>
<polygon fill="#00A388" points="30.3,29.4 30.2,29.1 29.6,28.9 28.5,29.1 28.2,28 27.3,27.6 27.1,27.3 27.1,27.2 25.4,27.1 
	25.1,27.2 24.4,27 23.9,25.9 23.3,25.3 22.9,25.3 22.4,24.7 21.9,25 21.3,24.3 20.8,23.1 20.5,22.8 20.7,22.6 20.7,21.9 20.4,20.7 
	20.1,20.4 20.2,19.4 19.7,19 16.7,18.8 17,18.5 16.9,18 17.3,17.8 17.6,16.8 17.2,16.5 17,14.9 16.2,14.6 16.1,14.4 16.4,14 
	16,13.4 15.7,13.3 15.7,13.1 16.1,12.5 16.5,12.5 16.3,11.5 16.8,10.9 16.9,10.1 16.6,9.6 16.5,8.6 16.8,8.1 16.4,7.9 16.2,7.4 
	16.7,7.3 17.2,6.6 17.4,5.9 18.1,6.2 18.4,5.5 18.9,5.6 19.2,4.8 19.6,4.2 19.5,3.4 19.9,3 23.2,3.2 27.1,3.1 29.1,3.3 35.5,3.5 
	42.1,3.5 46.1,3.7 49.4,3.9 51.8,3.9 60,4.2 60,5.2 59.8,5.2 59.8,10 59.9,10 59.8,19 59.8,19 59.8,25.1 56.9,25.1 47.6,24.9 
	46.1,24.9 44.3,24.8 39.3,24.7 39.4,24.6 38.8,24 39.1,22.2 39.3,21.6 39.7,21.4 39.8,21.3 39.2,20.5 38.6,20.6 38.1,19.9 
	37.4,20.1 37.4,20.9 36.5,20.8 36.1,21.8 34.9,22.3 34.6,23 33.6,23.4 33.5,23.7 32.9,24.1 31.5,23.9 30.5,24.7 30,24.6 29.8,24.6 
	30.1,25.5 29.9,26.1 29.6,26.4 29.7,27.3 30.6,27.6 31,28.6 30.7,29.4 "/>
<polygon fill="#EFC94C" points="81,25.3 75.1,25.3 60,25.1 60.1,18.8 60.1,18.8 60.2,9.7 60,9.7 60.1,5.5 60.3,5.5 60.3,4.2 
	65.9,4.3 68.3,4.4 82.8,4.5 88.3,4.5 88.3,10.7 88.3,25.1 88.3,25.4 "/>
<path fill="#8D719D" d="M7.8,54.5l-0.5-0.6l-0.4-0.2V53l-0.6-1.2L4.7,51l-0.5-0.8L2.8,49L2,48l-0.6-0.5v-0.4l0.4-0.9l-0.2-0.8v-0.8
	l-0.2-0.7l-0.5-0.7l-0.1-0.5l0.6-1.3L1.3,41l0.4-0.7l0.8-1.9l1-1.8l0.3-0.2l0.9,0.3L5,36.1l-0.2-0.4L5.3,35l0.3-1.2l0.6-0.2l0.5,0.2
	l0.9-0.5l0.1-0.8L7.3,32l-0.4,0.2l-0.6-0.4L6,32.3l0.7-1.8l0.5-1.8l0.1-0.8l-0.2-0.7l-0.6-0.6v-1.7l0.4-0.1l0.8-2.3l0.8-3.3l0.3-2.1
	v-0.6l3.4,0.1l2.1,0.1L14.2,19l2.3,0.1l3.2,0.1l0.4,0.4L20,20.5l0.3,0.4l0.3,1.1v0.7l-0.2,0.2L20.3,23l0.4,0.4l0.5,1.1l-0.5,0.4
	l0.1,1l-0.2,0.7h-0.4L20,27.2l0.8,0.5v0.4l0.3,0.7l-0.4,0.3l-0.2,0.8L20,30l0.1,0.4l-0.3,0.1l-0.3,0.6L19,30.9L18,30l-0.2,0.5
	l-0.9,0.3l0.1,0.8l0.3,0.9h0.2l0.3,0.8l-0.2,0.3l0.3,0.7l-0.1,0.9l0.2,0.7l-0.7,18.9L7.8,54.5z M4.7,34.5L5,34l0.3-0.5l-0.1,0.4
	L4.7,34.5L4.7,34.5z"/>
<polygon fill="#FFFF9D" points="17.5,55.5 17.5,55 18.2,35.9 18.1,35.2 18.1,34.3 17.8,33.7 18,33.4 17.6,32.3 17.4,32.3 17.1,31.6 
	17.1,31 17.9,30.7 18.1,30.4 18.8,31.1 19.6,31.4 19.9,30.7 20.3,30.6 20.4,30.6 20.3,30.1 20.6,29.8 20.8,29.1 21.2,28.8 
	21.3,28.8 20.9,27.9 20.9,27.5 20.2,27 20.3,26.8 20.6,26.8 20.9,25.8 20.9,24.9 21.2,24.6 21.8,25.3 22.3,25 22.8,25.6 23.2,25.5 
	23.7,26.1 24.3,27.3 25.2,27.5 25.4,27.3 26.9,27.4 27.2,27.8 28,28.2 28.3,29.4 29.5,29.1 30,29.3 30.1,29.5 30.1,29.6 30.8,29.7 
	31.3,28.6 30.8,27.4 30,27.2 29.9,26.5 30.1,26.2 30.3,25.5 30.2,24.9 30.5,24.9 31.6,24.2 33,24.3 33.7,23.8 33.8,23.6 34.8,23.1 
	35.1,22.5 36.2,22 36.6,21.1 37.6,21.2 37.7,20.3 38,20.2 38.5,20.8 39.1,20.8 39.4,21.3 39.1,21.5 38.8,22.2 38.6,24.1 39.1,24.6 
	39,24.9 39.9,25.4 40,26.6 39.8,27 39.1,27.3 38.8,27.2 38.8,27.2 38.1,27.7 38.5,28.2 38.1,29.4 37.2,29.9 36.7,30.7 36.6,31.8 
	36.8,32.2 36.3,32.7 36,33.5 35.4,34 35.7,34.6 35.3,35.4 34.8,35.7 34.3,36.3 34.6,36.7 34.3,37.3 33.6,37.5 34.1,38.6 33.9,39 
	34.5,39.2 34.6,40.5 34.2,40.4 33.8,41 33.3,40.9 32.9,41.3 32.7,42 31.5,42.3 31.4,42.8 31.1,42.8 30.6,43.7 30,43.7 29.5,44.3 
	28.5,44.4 28.6,45.1 28.2,45.6 27.8,45.8 27.6,46.2 27.1,46.3 27.1,47.9 27.4,48.5 28.1,48.6 28.7,49 28.9,49.4 28.8,50 28.9,50.5 
	28.7,50.8 28.5,51.6 28.8,52.1 29,52.8 28.8,53.4 28.8,53.4 29.2,53.9 29.1,55.5 29.4,55.9 "/>
<polygon fill="#334D5C" points="27.4,46.5 27.8,46.4 28,45.9 28.3,45.8 28.8,45.1 28.8,44.6 29.6,44.6 30.1,44 30.7,44 31.2,43.1 
	31.6,43 31.8,42.5 32.9,42.2 33.1,41.4 33.4,41.2 33.9,41.2 34.3,40.7 34.9,40.9 34.7,39 34.2,38.9 34.4,38.6 33.9,37.7 34.5,37.5 
	34.9,36.7 34.6,36.3 34.9,35.9 35.5,35.6 35.9,34.6 35.7,34.1 36.2,33.7 36.5,32.8 37.1,32.2 36.9,31.7 37,30.8 37.3,30 38.4,29.6 
	38.7,28.2 38.4,27.7 38.8,27.4 39.2,27.5 39.9,27.2 40.2,26.6 40.1,25.2 39.6,25 44.3,25.1 46.1,25.2 47.6,25.2 56.9,25.4 62,25.4 
	62,31.4 61.9,32.7 62.1,32.7 62.1,34.5 62,37.1 61.9,43.2 61.8,44.4 60.5,44.4 58.6,44.4 57.2,44.3 56.5,44.9 54.3,44.4 53.8,44.5 
	52.4,44.3 51.7,44.5 51,44.5 50.4,44.9 49.7,45 48.5,44.7 46.9,45 46.5,45 45.8,45.4 44.9,45.5 44.5,45.8 43.9,45.5 43.3,45.8 
	42.7,45.7 41.4,45.9 39.7,45.9 39.2,45.6 38.1,45.4 37.2,46 37,45.9 36.9,45.9 36.3,46.5 35.5,46.9 35.1,46.9 34.4,46.4 34,46.4 
	33.7,45.9 31.5,46.4 31,46.3 30.1,47.3 29,47.1 28,47.3 27.4,47.7 "/>
<polygon fill="#962D3E" points="85.6,63.3 85.9,63.4 86.1,62.6 86.3,62.6 86.3,59.6 86.5,59.6 86.5,58.6 86.3,58.6 86.3,57.9 
	85.2,57.1 84.8,55.9 84.5,55.9 84.5,55.1 84.3,55.1 84.3,54 83.6,54 83.6,53.4 82.9,53.2 81.7,53.2 81.7,53 80.9,52.8 80.9,52.6 
	80.3,52.4 80.2,51.8 79.6,51.6 79.4,50.8 78.8,50.8 78.7,50.1 78.3,50.1 78.3,49.7 77,49.3 77,48.7 76,48.7 75.5,48.2 74,48.1 
	74,47.9 73.1,47.9 72.9,48.3 72.4,48.3 72.4,48.9 71.6,49.1 71.6,49.6 71.3,49.9 71,49.8 70.9,49.8 70.8,51 70.5,51.1 70,51.1 
	70,50.7 69.6,50.7 69.6,50.4 68.5,50.3 68.5,50 67.7,50 67.7,49.4 67.3,49.4 67.4,44.5 62.1,44.4 62.2,43.2 62.3,37.1 62.3,34.5 
	62.4,32.4 62.2,32.4 62.2,31.4 62.3,25.4 75.1,25.6 81,25.6 88.3,25.6 88.3,36.2 88.3,41.5 88.4,46.4 88.3,56.1 88.2,63.6 88,63.8 
	85.6,63.8 "/>
<polygon fill="#8D719D" points="45.7,61 39.3,60.8 36,60.7 31.4,60.6 29.5,60.6 29.2,59.2 29.4,57.9 29.9,57.7 30.1,57.1 29.8,56.8 
	29.7,56 29.4,55.4 29.4,53.9 29,53.4 29.3,52.9 29.1,52 28.8,51.6 28.9,50.9 29.2,50.6 29,50 29.1,49.4 28.9,48.9 28.2,48.4 
	27.6,48.3 27.4,47.9 28.1,47.6 29.1,47.3 30.2,47.6 31.1,46.6 31.5,46.7 33.5,46.2 33.9,46.6 34.4,46.6 35,47.1 35.5,47.2 
	36.4,46.7 37,46.2 37.3,46.2 38.2,45.7 39.2,45.8 39.6,46.1 41.4,46.2 42.7,46 43.4,46 43.9,45.8 44.6,46.1 45,45.7 45.9,45.6 
	46.6,45.2 46.9,45.3 48.5,44.9 49.7,45.2 50.5,45.1 51.1,44.7 51.8,44.7 52.4,44.5 53.8,44.8 54.3,44.7 56.5,45.1 57.3,44.6 
	58.5,44.6 58.4,44.9 58.8,45.2 58.7,46 59,47.1 59.9,47.1 60.2,47.4 60.9,47.4 61.4,48.1 61.2,48.4 61.3,49.3 61,49.6 60.9,50.5 
	60.7,50.5 60.2,51 59.5,50.9 59.3,52.1 59.5,52.2 59.3,52.8 58.8,52.8 58.1,53.4 56.7,53.3 56.4,53.6 56.3,53.6 56.3,54.5 
	55.8,54.9 55.5,55.3 55.5,56.1 55.3,56.4 54.2,56.3 53.7,56.8 53.3,57.6 53.2,58.4 52.6,58.8 52.2,58.9 47.4,58.9 46.7,60 47,60.4 
	46.8,60.8 46.8,60.9 47,61 "/>
<polygon fill="#DF5A49" points="66.4,66 65.6,65.8 65.6,65 65.2,65 64.9,64.3 64.6,64.3 64.6,63.9 64.2,63.9 64.2,63.2 63.8,63.2 
	63.8,62.8 63.3,62.8 63,62.5 63,62.2 63,62.1 61.7,61 61.8,60.6 61.4,60.6 61.2,59.8 60.2,59.4 60.2,58.6 59.8,58.6 59.8,58.5 
	60.3,58.5 60,57.9 60,57.3 60.2,57.3 60.3,56.3 60.1,56.3 60.1,55.7 60.4,55.4 60.5,54.9 60.9,54.9 61,53.2 60.4,53 60.4,52.1 
	59.7,52 59.6,52 59.7,51.2 60.3,51.3 60.8,50.7 61.1,50.7 61.2,50.7 61.3,49.7 61.5,49.3 61.4,48.4 61.8,48.1 61,47.2 60.3,47.1 
	60,46.9 59.2,46.9 58.9,46 59.1,45.1 58.7,44.8 58.7,44.6 60.5,44.6 62,44.7 67.1,44.7 67.1,49.7 67.5,49.7 67.5,50.2 68.2,50.2 
	68.2,50.6 69.4,50.6 69.3,51 69.7,51 69.7,51.4 70.6,51.4 71.1,51.1 71.1,50.1 71.4,50.1 71.8,49.7 71.9,49.3 72.6,49.1 72.6,48.5 
	73,48.5 73.2,48.2 73.8,48.2 73.8,48.4 75.4,48.4 75.9,48.9 76.7,49 76.7,49.5 78.1,49.9 78.1,50.3 78.5,50.3 78.6,51.1 79.2,51.1 
	79.4,51.8 80,52 80.1,52.6 80.7,52.7 80.7,53 81.4,53.2 81.4,53.4 82.9,53.5 83.3,53.6 83.3,54.2 84.1,54.2 84,55.3 84.2,55.3 
	84.2,56.1 84.6,56.1 85,57.2 86.1,58 86.1,58.8 86.3,58.8 86.3,59.3 86.1,59.3 86,62.3 85.9,62.3 85.7,63.1 85.3,63.1 85.3,63.8 
	79.4,63.8 79,63.9 75.1,63.8 75,64.4 74.7,64.6 74,63.8 73.4,63.5 72.5,63.7 72.2,63.5 72.1,62.8 72.1,62.7 71.6,62.8 70.9,61.9 
	70,62.5 69.5,63 69.5,64 69.2,64.7 68.2,65.6 68.1,65.5 66.7,66.5 "/>
<polygon fill="#FFFF9D" points="55.5,74 50,74 50.2,73.3 50.1,72.7 50.3,72.1 50.8,69.9 50.6,68.7 51.1,68.1 51.2,67.9 49.2,67.9 
	48.5,68.1 48.3,67.9 48.1,67 48.3,66.4 48.7,66 48.4,65.3 49,65 48.7,64.7 49.5,63.8 49.3,63.2 49,63.1 49.2,62.7 48.6,62.7 
	47.7,61.6 47.9,61 47.3,61 47.1,60.8 47.2,60.4 47,60 47.5,59.2 52.2,59.1 52.8,59 53.4,58.5 53.5,57.7 53.9,56.9 54.3,56.6 
	55.5,56.6 55.7,56.2 55.8,55.4 55.9,55.1 56.6,54.7 56.6,53.7 56.8,53.6 58.2,53.6 58.9,53 59.3,53.1 59.4,53.1 59.8,52.3 
	60.2,52.3 60.2,53.2 60.7,53.4 60.6,54.7 60.2,54.6 60.2,55.3 59.9,55.6 59.8,56.4 59.8,56.6 60,56.6 60,57.1 59.8,57.1 59.8,58 
	59.9,58.2 59.6,58.2 59.6,58.9 60,58.9 59.9,59.6 61,60 61.2,60.8 61.5,60.8 61.5,61.1 62.8,62.3 62.8,62.6 63.2,63.1 63.5,63.1 
	63.5,63.5 63.9,63.5 63.9,64.1 64.3,64.1 64.3,64.5 64.7,64.5 65,65.3 65.4,65.3 65.4,66 66.2,66.2 66.6,66.8 66.6,66.9 65.9,66.9 
	66,67.4 65.1,67.7 64.9,68.6 64.5,68.4 63.3,68.4 63.3,68.7 62.6,68.8 62,68.5 61.7,69.8 61.3,70 61.1,70.6 61.3,71.1 60.8,71.6 
	60.5,72.7 59.9,73.2 59.1,73.5 58.5,73.4 58.3,73.8 57.4,73.7 56.7,74.1 56.2,74 55.9,73.7 55.8,73.6 55.5,74.1 "/>
<polygon fill="#BEEB9F" points="16.5,87 15.2,85.7 14.2,84.8 14.1,84.3 13.6,83.9 13.1,83.1 12.7,83 12.7,82.1 13.1,81.6 13.6,80.2 
	13.1,77.4 12.8,77.1 12.9,76.8 12.1,75.7 12,74.1 11.6,73.7 11.5,72.9 11.7,72.6 11.7,72.5 11.1,71.7 11.5,70 11.4,69.4 11.8,68.2 
	12.4,67 12.6,66.2 12.2,65.1 12.4,64.7 12.2,63.1 11.9,62.3 11.5,62 11.4,61.2 11.4,60.1 11.2,59.1 10,58.2 9.7,57 9.2,56.6 
	8.7,55.6 8.1,54.7 17.3,55.1 17.2,55.7 29.5,56.1 29.6,56.9 29.8,57.1 29.7,57.5 29.1,57.7 29,59.2 29.3,60.7 29.2,62.1 29.7,62.1 
	29.7,63.1 30.1,63.2 30.1,66.4 30,67.6 29.1,67.5 29,67.9 27.4,67.8 26.5,68.2 26.4,69.5 26.3,69.5 26.2,70.9 26.5,70.9 26.5,71.6 
	26.9,72 26.8,72.7 27.2,73.1 27.2,74.2 27.2,74.3 27.5,74.3 27.6,75.2 27.3,75.2 26.6,76.8 25.9,76.8 25.9,77.7 25.7,77.7 
	25.7,78.9 25.5,79.6 26.2,79.9 26.3,80.2 26.2,80.9 26.8,81.3 26.8,81.7 27.6,81.7 27.8,82 27.7,82.9 28.3,83.5 28.3,84.1 
	28.3,84.2 29.4,84.4 29.4,84.7 30.2,85.2 30.9,85.3 30.9,85.3 30.6,85.4 25.6,85.1 25.6,85.5 24.4,85.4 24.4,86.2 19.7,86.1 
	19.7,86.9 17.1,86.8 16.6,87.2 "/>
<polygon fill="#979C9C" points="47.9,71.9 47.9,71.1 45.1,71 45.1,71.8 39.2,71.7 36.3,71.5 33.2,71.5 33.2,70.3 33.3,69.9 
	33.3,68.4 33.4,66.4 30.4,66.3 30.3,62.9 29.9,62.9 30,61.9 29.5,61.9 29.5,60.8 31.4,60.8 36,61 39.3,61.1 45.7,61.3 47.3,61.3 
	47.5,61.3 47.4,61.7 48.5,63 48.8,63 48.6,63.2 49.1,63.4 49.2,63.8 48.4,64.7 48.6,64.9 48.1,65.2 48.4,65.9 48.1,66.3 47.9,67 
	48.1,68.1 48.5,68.3 49.2,68.1 50.7,68.2 50.4,68.7 50.5,69.9 50.1,71.9 "/>
<polygon fill="#979C9C" points="67.7,68.8 67.3,68.7 67.2,68.3 67.8,67.8 68.2,65.8 68.2,65.8 69.4,64.9 69.7,64.1 69.7,63.1 
	70.1,62.7 70.9,62.2 71.4,63 71.9,63 72,63.6 72.4,64 73.3,63.7 73.8,64 74.7,64.9 75.2,64.6 75.3,64.1 79,64.1 79.4,64 85.4,64.1 
	88.1,64.1 88.2,63.9 88.2,70.7 85.6,70.7 78.2,70.6 77.7,70.2 77.7,69.8 77.3,68.9 76.8,68.6 74.8,68.7 73.8,69.5 73.6,70 73,70.5 
	71.7,70.9 71.5,70.7 70.3,71.2 68.3,71.4 67.8,71.8 "/>
<polygon fill="#00A388" points="56.3,82.8 56.4,81.9 55.9,81.1 55.8,80.7 56.4,79.8 56,79.5 56.1,78.8 55.7,77.4 55.8,76.1 
	55.4,75.8 55.4,75.4 55.7,75.4 55.7,74.4 55.9,74 56.1,74.2 56.8,74.3 57.5,74 58.4,74 58.6,73.6 59.1,73.7 60,73.5 60.7,72.8 
	61,71.7 61.6,71.2 61.3,70.6 61.5,70.1 61.9,69.9 62,69.9 62.2,68.9 62.6,69 63.5,69 63.5,68.6 64.5,68.7 65.1,68.9 65.3,67.9 
	66.2,67.6 66.2,67.2 66.7,67.2 66.8,66.7 67.9,65.9 67.6,67.7 66.9,68.3 67.1,68.9 67.4,69 67.6,72 66.5,71.9 66,72.3 65.6,72.2 
	65.5,72.2 64.8,73.3 64.5,73.3 63.8,74 64,74.3 63.7,74.7 63.3,74.7 62.6,75.1 62.8,75.6 62.4,76.2 62.3,81.1 61.8,80.7 60.5,81.4 
	59.6,82.2 58.8,82.1 58.1,82.3 57.3,82.8 57,82.8 57,82.8 56.5,83.5 "/>
<polygon fill="#E27A3F" points="34.5,89.2 33.5,89 33.2,88.6 33.3,88.1 32.5,87.1 32.5,86.7 31.2,85.4 31.2,85.1 30.3,85 29.6,84.6 
	29.7,84.2 28.6,84 28.6,83.4 28,82.8 28,81.9 27.8,81.4 27,81.4 27,81.2 26.5,80.8 26.5,80.1 26.3,79.7 25.8,79.5 25.9,79 
	25.9,77.9 26.1,77.9 26.2,77 26.8,77 27.5,75.4 27.9,75.5 27.7,74.1 27.4,74.1 27.5,73.1 27.1,72.6 27.1,72 26.7,71.5 26.8,70.8 
	26.8,70.7 26.4,70.7 26.5,69.7 26.7,69.8 26.7,68.4 27.4,68 29.3,68.2 29.3,67.8 30.2,67.9 30.4,66.5 33.1,66.6 33.1,68.4 
	33.1,69.9 32.9,70.2 32.9,71.5 32.4,71.7 32.8,72.2 32.4,72.6 32.1,73.4 32.5,74.2 33.9,75.3 34.4,76.1 35.1,76 36.1,76.3 
	36.2,76.5 36.2,76.5 37.3,76.4 37.3,76.6 38.1,77.3 37.6,78.6 37.8,79.6 37.7,80.5 38.3,80.6 38.8,81.3 39.3,81.4 39.1,82 
	39.3,82.8 40.4,83.7 39.5,83.6 39,84.3 39.6,85.2 39.6,85.3 39.4,85.6 39.9,86.4 39.8,86.8 39.5,86.8 39.2,87.5 38,89.4 34.9,90.2 
	"/>
<polygon fill="#EFC94C" points="66,81.9 65.3,81.1 64.2,81.8 63.6,81.8 62.5,81.3 62.6,76.2 63,75.6 62.9,75.2 63.3,75 63.7,75 
	63.8,75 64.3,74.4 64.1,74 64.6,73.5 64.8,73.6 64.9,73.6 65.7,72.5 66,72.5 66.6,72.1 67.8,72.2 68.4,71.6 70.4,71.4 71.5,71 
	71.7,71.1 73.2,70.7 73.8,70.1 74,69.7 74.9,68.9 76.8,68.9 77.1,69.1 77.5,69.8 77.5,70.3 78.1,70.9 85.6,70.9 88.2,70.9 88.2,74 
	75.3,74 74.1,74.4 73.6,74.8 72,76.2 71.1,76.7 70.7,77.5 70.2,77.6 69.1,78.5 68.3,79.6 68.1,80.3 67.4,81.2 67.2,81.8 66.7,82 "/>
<polygon fill="#348899" points="47.2,83.8 40.8,83.7 39.5,82.7 39.4,82 39.6,81.2 38.9,81.1 38.4,80.4 38,80.3 38.1,79.6 37.8,78.6 
	38.4,77.3 37.6,76.5 37.6,76.3 37.6,76.2 36.4,76.3 36.2,76.1 35.1,75.7 34.5,75.8 34,75.2 32.7,74.1 32.4,73.4 32.6,72.7 
	33.2,72.2 32.8,71.8 33.1,71.7 36.3,71.8 39.2,71.9 45.4,72 45.4,71.3 47.7,71.3 47.6,72.1 50,72.2 49.9,72.7 49.9,73.2 49.7,74.1 
	49,75.1 48.8,75.7 49.2,76.9 48.8,77.4 49.4,78.1 48.9,78.6 49.6,78.9 49.9,79.6 49.8,80 50.4,80.4 50.9,80.5 51,80.9 51.3,81.3 
	51.2,81.8 51.7,82.2 51.4,82.3 50.9,83.2 50.9,83.9 "/>
<polygon fill="#334D5C" points="57.6,88.9 55.9,88.9 56.1,88.3 55.3,87.5 55,88.2 54.6,88.4 54.1,88.1 54.1,88 53.9,87.2 53.9,87.2 
	53.4,87.1 53.3,86.4 53.4,86 52.8,85.3 52.2,85.6 51.6,85.2 51.8,84.2 51.2,83.9 51.1,83.2 51.5,82.5 52,82.3 52.2,82.2 51.4,81.7 
	51.5,81.3 51.2,80.8 51.2,80.4 51.2,80.3 50.4,80.2 50.1,79.9 50.1,79.6 49.7,78.7 49.3,78.6 49.7,78.2 49.1,77.4 49.4,76.9 
	49.1,75.7 49.2,75.2 49.9,74.2 55.3,74.3 55.4,74.5 55.5,75.2 55.2,75.2 55.2,75.9 55.6,76.2 55.5,77.4 55.9,78.9 55.8,79.6 
	56.1,79.8 55.6,80.6 55.6,81.2 56.2,82 56,82.8 56.4,84 57.1,83 57.4,83 58.2,82.5 58.8,82.4 59.5,82.4 59.5,84 58.4,84 58.3,88.7 
	58.1,89 "/>
<polygon fill="#BEEB9F" points="58.4,89 58.5,88.7 58.6,84.3 59.8,84.3 59.8,82.3 60.6,81.6 61.8,81 62.3,81.4 63.5,82.1 64.3,82 
	65.3,81.5 65.9,82.1 66.7,82.3 67.4,82 67.6,81.4 68.3,80.4 68.5,79.7 69.3,78.7 70.3,77.8 70.9,77.8 71.3,76.9 72.2,76.4 73.7,75 
	74.2,74.7 75.4,74.3 88.2,74.3 88.1,76.6 88.2,80.5 85.4,80.5 85.2,81.2 84.6,81.5 83.4,81.5 83.4,81.7 81.7,81.7 79.5,81.5 
	78.8,83 78.3,83.8 76.9,84.5 76,83.8 75.1,83.6 74.6,83.1 74.5,82.6 74.5,82.4 74.1,82.7 73.7,82.2 73,82 72.1,82.3 71.9,82.2 
	71.8,82.2 71.4,82.9 71.1,82.8 70.8,83.4 70.1,83.4 69.2,83.1 69.2,83.8 68.9,83.8 68,84.4 67.2,84.4 66.7,85.3 66.7,86.2 
	66.2,86.5 65.4,88.7 64.8,89.2 64.9,89.7 "/>
<polygon fill="#962D3E" points="75.5,95.2 73.1,93.9 72.4,94 71.8,93.7 71.2,93.8 69.5,94.8 69.2,94.5 67.5,95 66.4,91.7 65.7,89.5 
	65.1,89.7 65.1,89.3 65.6,88.8 66.4,86.7 67,86.3 66.9,85.4 67.3,84.6 68,84.6 69,84 69.3,84.1 69.4,84.2 69.4,83.5 70.1,83.7 
	70.9,83.7 71.2,83.1 71.5,83.3 71.9,82.5 72.2,82.6 73,82.3 73.6,82.4 74,82.9 74,83 74.3,82.8 74.4,83.3 75,83.8 75.9,84 
	76.9,84.8 78.4,84 79,83.2 79.6,81.8 81.7,82 83.6,81.9 83.6,81.7 84.6,81.7 85.3,81.3 85.6,80.8 88.2,80.8 88.2,82.5 90.2,84.3 
	90.6,84.6 90.7,85.9 90.2,86.2 90.1,86.7 89.4,87.5 89.3,88 89.1,88.2 86.8,90.1 86.1,90 86,90 85.9,90.8 85.4,91.8 83.9,92 
	83.5,93.1 83,93.3 82.7,93.9 81.8,94.2 81.1,94.1 79.5,94.6 78.4,94.8 78,95 77.1,95 76.5,95.2 "/>
<polygon fill="#00A388" points="53.8,99.9 53.9,94.4 53.5,94.1 52.7,94 51.9,94.4 50.4,94 49.4,94.2 48.7,94.1 47.2,95.2 46.8,94.9 
	46.4,94.4 45.5,94.5 45.3,94.3 45.1,92.8 44.3,90.8 43.9,90.7 43.6,90.2 43.5,89.7 43.2,89.6 43.2,89.1 42.7,88.2 42.5,87.4 
	41.9,85.9 41.1,85.7 40.6,86 39.8,85.3 39.9,85.3 39.3,84.3 39.6,83.9 40.8,83.9 47.2,84 51.1,84.2 51.5,84.4 51.3,85.3 52.2,85.9 
	52.8,85.6 53.2,86 53,86.4 53.2,87.3 53.7,87.4 53.9,88 53.8,88.1 53.7,88.3 54.6,88.7 55.1,88.3 55.4,87.9 55.8,88.3 55.6,89 
	55.4,89.6 55,90 55,90.6 55.8,91.5 56.4,91.7 56.4,92.4 56.8,92.8 57.4,92.8 57.2,93.4 57.4,94 57,94.4 57,94.6 56.6,94.8 
	56.4,95.4 56.8,96 57.5,96.1 57.5,96.7 56.9,97 57.3,97.9 57.1,98.8 56.4,99.2 55.7,99.9 "/>
<polygon fill="#334D5C" points="94.7,98.9 94.8,98.7 94.7,97.8 94.4,97.5 93.5,97.5 92.5,97.9 92.2,98.4 91.8,98.4 90.8,99 
	87.3,96.5 87,96.6 87,90.2 89.2,88.4 89.6,88.2 89.7,87.6 90.3,86.8 90.4,86.3 91,86 90.8,84.8 96.7,90 96.8,90.1 96.2,91.3 
	96,92.8 96.6,93.2 96.8,94.1 97.1,94.5 97.6,95.5 97.6,95.9 97.4,96.1 97.3,96.8 97.1,97.1 97.1,97.1 97.2,97.8 96.9,98 96.5,97.8 
	96,98.2 96.3,98.9 95.8,99.2 95.7,99.7 "/>
<polygon fill="#334D5C" points="36.2,103.6 35.9,103.5 35.7,102.8 34.9,102.9 34,102.9 33.7,102.7 32.2,102.2 28.9,99.2 28,99.3 
	27.7,99.2 27.7,99.2 26.8,99.7 26.2,99.2 26.2,98.9 25.5,99 25.7,98.2 25.3,97.3 24.6,96.2 24.5,95.8 23.2,94.6 22.4,94.2 
	21.7,93.5 20.4,92.5 20.2,91.8 19.6,91.3 19.2,90.3 18,88.6 16.9,87.8 16.7,87.5 17.2,87 19.9,87.2 19.9,86.4 24.7,86.5 24.7,85.7 
	25.8,85.8 25.8,85.4 30.6,85.6 31,85.6 32.3,86.8 32.3,87.2 33,88.2 33,88.6 33.4,89.2 34.3,89.4 34.7,90.4 34.5,91.1 34.6,91.5 
	34.2,92.1 34.7,93.2 35.5,93.5 35.8,94.2 36.3,94.4 36.2,94.9 36.5,95.6 37.5,96.1 37.1,96.8 37.7,97.4 38.1,98 37.9,98.3 
	38.6,98.9 39.2,100 38.9,100.6 39.3,101.2 39.8,101.6 39.9,102 39.9,103.1 39.7,103.6 38.8,103.7 38.9,104 38.7,104.3 38.1,104.7 
	37.2,104.8 "/>
<polygon fill="#EFC94C" points="39.9,103.7 40.1,103.2 40.1,102 40,101.5 39.4,101 39.2,100.5 39.4,99.9 38.8,98.7 38.2,98.2 
	38.4,98 37.9,97.2 37.4,96.7 37.8,96 36.7,95.5 36.5,94.8 36.5,94.2 36,94 35.6,93.3 34.9,93 34.5,92.2 34.9,91.5 34.8,91.1 
	34.9,90.5 38.2,89.6 39.5,87.6 39.6,87 40,87.1 40.2,86.4 39.7,85.6 39.7,85.5 40.5,86.3 41.1,86 41.7,86.1 42.3,87.4 42.4,88.3 
	42.9,89.2 42.9,89.8 43.3,89.9 43.4,90.3 43.8,90.9 44.1,91 44.9,92.8 45.1,94.4 45.3,94.7 45.2,95.2 44.8,96.3 44.8,97 45.6,98.2 
	46,99.5 46,99.7 43,99.6 43.1,100.4 42.8,101.2 43.1,101.3 43,101.6 43.2,102.4 43.1,102.4 42.8,103.3 43.1,103.8 "/>
<path fill="#8D719D" d="M50.8,107.1l-0.1-0.4l0.4,0.1l-0.1,0.4l0.3,0.2h-0.1L50.8,107.1z M51.7,106.7l1-0.6h0.7v-0.5l0.4-0.7
	l0.1-0.6l0.5-0.8l0.9-0.4l0.3-0.6v-2l0.2-0.4l0.7-0.7l0.8-0.5l0.2-1.1l-0.3-0.7l0.6-0.3v-0.9L57,95.8l-0.3-0.5l0.1-0.3l0.6-0.1
	l-0.1-0.3l0.4-0.4l-0.2-0.6l0.2-0.7v-0.2h-0.8l-0.3-0.3l-0.1-0.8l-0.7-0.1l-0.7-0.9v-0.4l0.4-0.4l0.2-0.6h1.8l7.4,0.8l0.5-0.1l0.7,2
	l1.1,3.4l-0.1,5.3l-0.3,0.2l-0.4-0.2L66,101l-0.9,0.2l-1,0.6l-0.3-0.1l-0.7,0.3l-0.9-0.2l-0.6,0.4l-0.9,0.2l-1.5-0.2l-0.2-0.5
	l-1-0.2l-0.7,1.3l-0.5,0.4l0.1,0.6l-0.4,0.6l-0.9,0.9l0.4,0.3h-0.1l-0.5-0.3l-0.8,0.5l-0.3-0.2l-0.6,0.2l-0.1,0.9l-0.3,0.2l-1.1,0.5
	h-0.5L51.7,106.7z"/>
<polygon fill="#348899" points="113.4,121.5 112.2,121.8 112.1,121.4 111.3,120.7 110.9,120 110.6,120 110.1,119.6 109.7,119.8 
	108.7,119.1 108.5,118.7 108.5,118.1 107.9,117.3 107.8,116.6 106.6,115.3 104.9,115.2 104.5,115.7 104.2,115.5 103.8,115.5 
	103.6,115.3 104.2,114.4 104.5,114.3 105,113.6 104.7,113.2 105,112.3 104.7,112.3 104.7,111.8 105,111.5 105.1,111.5 104.2,110.7 
	103.7,110.6 103.6,110.3 102.7,109.8 102.5,109.3 102.6,109 102.8,107.9 102.4,106.7 101.9,106.2 101.1,105.9 100.8,105.6 
	100.3,105.5 99.5,105.8 98.8,104.4 98.3,104.8 97.8,104.6 97.8,104.4 97.2,104.3 97.1,103.7 96.1,103.3 96.2,102.6 96.7,102.4 
	96.3,101.9 96.5,101.7 95.7,101 95.8,100.9 95.9,100 96.1,99.3 96.6,99 96.3,98.3 96.5,98.1 96.9,98.3 97.5,97.9 97.3,97.2 
	97.6,96.9 97.6,96.2 97.8,96 97.9,95.5 97.3,94.3 97,94 96.8,93.1 96.3,92.7 96.4,91.4 97,90.2 133,121.9 124.6,122.1 119.2,122.2 
	113.9,122.2 "/>
<polygon fill="#348899" points="68.1,102.4 67.4,100.5 67.5,95.2 69.1,94.8 69.4,95.2 71.3,94 71.8,93.9 72.3,94.2 73.1,94.1 
	75.5,95.5 76.5,95.5 77.1,95.2 78.1,95.2 78.5,95 79.5,94.9 81.2,94.3 81.9,94.4 82.8,94 83.1,93.5 83.6,93.3 84.1,92.2 85.6,92 
	86.1,90.8 86.2,90.2 86.8,90.3 86.8,95.1 85.8,95.5 84.8,95.5 84.3,95.3 82.8,95.9 82.4,95.9 81.6,96.3 80.6,96.3 79.7,96 
	79.1,96.7 78.1,96.7 77.6,97.4 76.6,97.6 76.5,97.9 76,97.9 75.7,98.2 75.6,99.1 75.3,99.5 74.5,99.7 74.2,100 73.2,100.3 
	72.9,100.8 71.8,100.8 70.9,101.4 70.7,101.9 70.3,102.1 70,102.5 69.6,102.3 69.1,102.6 68.5,102.6 "/>
<path fill="#962D3E" d="M44,106.6l-0.5-0.6l-0.8,0.1l-0.6-0.8l-0.3-0.6l0.2-0.5v-0.1l-0.1-0.1l1.7,0.1l-0.5-0.8l0.2-0.7l0.2-0.1h0.1
	l-0.2-0.9l0.2-0.3l0.1-0.1l-0.4-0.1l0.2-0.7v-0.5l2.9,0.1l0.1-0.5L46,98.1l-1-1.2l0.1-0.5l0.4-1.1v-0.5l0.8-0.1l0.4,0.4l0.6,0.3
	l1.5-1.2l0.6,0.1l1-0.2l1.5,0.4l0.8-0.4l0.6,0.1l0.2,0.2l-0.1,5.6l2,0.1l-0.1,0.3v2l-0.2,0.5l-0.9,0.4l-0.6,0.6l-0.4,1.1l-0.1,0.7
	l-0.6-0.1l-1.2,0.7l-0.8-0.4h-0.1l-1.1,0.6l-0.3-0.2l0.2-0.6h-1.5l-0.6-0.3l0.8-0.5l-0.5-0.8l-1.4,0.2l-0.3,0.8l-0.9,0.8l-0.3,0.5
	L44,106.6z M41.1,105l-0.5-0.5l-1.2-0.6l1.8,0.1l0.2,0.3v0.5l0.7,1.1l-0.2,0.1L41.1,105z"/>
<polygon fill="#E27A3F" points="69.2,106 68.2,102.8 68.4,102.9 69.2,102.8 69.6,102.6 70.1,102.8 70.4,102.3 70.9,102.1 
	71.1,101.6 71.9,101 73,101 73.4,100.5 74.4,100.2 74.7,99.9 75.4,99.7 75.8,99.2 75.9,98.3 76.1,98.1 76.7,98.1 76.7,98.1 
	76.8,97.8 77.7,97.6 78.2,96.9 79.2,96.9 79.8,96.3 80.6,96.6 81.6,96.5 82.4,96.2 82.9,96.2 84.3,95.6 84.7,95.7 85.9,95.7 
	86.8,95.4 86.8,97.1 87.3,96.8 87.8,97.2 87.7,97.4 87,97.6 86.5,97.9 85.9,98 84.7,98.7 84.1,99.9 83.7,100.1 83.3,100.8 
	82.8,101.4 81.3,103.7 81.3,104 80.7,104.5 80.3,105.4 79.9,105.7 79.8,106.2 79.2,106.9 78.7,108.1 78,108.2 77.9,108.6 
	77.2,108.6 77.6,109.7 77.2,109.9 77.2,110.3 76.7,110.6 76.5,111.1 76.2,111.1 75.9,111.6 75.3,112 74.9,112.6 "/>
<polygon fill="#BEEB9F" points="75.1,112.8 75.4,112.2 76.1,111.8 76.3,111.3 76.7,111.4 76.9,110.8 77.4,110.4 77.5,110 
	77.9,109.8 77.6,108.8 78.1,108.8 78.2,108.4 78.9,108.4 79.4,107 80,106.3 80.1,105.8 80.5,105.5 80.9,104.6 81.5,104.1 
	81.5,103.7 82.9,101.5 83.5,100.9 83.9,100.3 84.2,100 84.9,98.8 86,98.2 86.6,98.1 87.1,97.8 87.8,97.6 88,97.3 90.8,99.3 
	91.9,98.7 92.3,98.5 92.6,98.1 93.6,97.7 94.3,97.7 94.5,97.9 94.5,98.6 94.4,98.9 94.4,99 95.7,100 95.6,100.8 95.5,100.9 
	95.4,101 96.2,101.7 96,101.9 96.3,102.3 96,102.4 95.9,103.5 96.9,103.9 97,104.5 97.6,104.6 97.6,104.8 98.4,105 98.7,104.8 
	99.4,106.1 100.3,105.8 100.7,105.8 101,106.1 101.7,106.4 102.2,106.9 102.6,107.9 102.4,108.9 102.2,109.2 102.5,109.9 
	103.4,110.4 103.5,110.9 104.1,110.9 104.7,111.5 104.5,111.8 104.4,112.4 104.4,112.6 104.6,112.6 104.4,113.2 104.7,113.6 
	104.4,114.1 104.1,114.2 103.5,115.1 103.1,115 102.8,114.2 102.5,113.8 101.8,113.3 101.9,113 101.3,112.5 100.8,112.6 
	100.8,112.3 99.6,111.7 99.2,112 98.8,111.9 98,110.9 97.2,111 96.8,111.3 96.6,112.1 95.3,112.8 95.5,113.3 94.5,113.9 93.5,114.1 
	93.4,114.3 92.4,114.7 91.9,114.4 91.5,114.7 91.2,114.3 90.3,114.7 89.6,114.5 89.2,114.1 87.9,113.3 87.2,113.3 86.8,112.9 
	86.7,112.8 86.4,113.4 85.7,114.1 84.5,113.7 84.4,114.5 83.7,114.6 82.9,115.2 82.6,115.1 82.4,115.1 82.4,115.4 82.1,115.3 
	81.2,115.6 81.1,115.6 81.9,117.2 81.7,117.5 81.1,116.9 80.3,116.6 80.2,116.6 80.1,117.2 80.5,117.6 80.3,117.9 "/>
<path fill="#DF5A49" d="M36.6,112.3L36.6,112.3l-0.2-0.1l0,0l0,0l0,0v-0.5l-0.1,0.4l0,0v0.1l-0.5-0.7l-1.2-0.7l-0.5-0.5l-0.9-0.3
	l-0.4,0.3l-0.5-0.2l-0.1-0.5l-1-0.7l-0.2-0.7l-1.2-1.1l-1.2-0.5l-1,0.1l-0.5,0.5v0.3l-0.3-0.2l1.1-2.7l0.3-1.3l-0.4-0.6v-0.1
	l0.6,0.3l0.5,1l1.3,1.7l0.5-0.2l-1.6-2.1l-0.5-1.1l-0.5-0.7l-0.4-0.1l0.1-0.3L27,99.9l0.7-0.4l0.3,0.1l0.9-0.1l3.2,2.9l1.5,0.5
	l0.3,0.2h1l0.6-0.1l0.2,0.7l0.4,0.1L37,105l0.2,0.9l-0.3,1v0.6l0.7,0.4l0.2,0.2l-0.9,0.4l0.2,0.7l-0.3,0.4l-0.1,0.1l0.6,0.3
	l-0.1,0.2l0.6,0.5l-0.4,0.2l-0.3-0.6l-0.4,0.1l0.2,0.9l0.3,0.2l0.1,0.5l0,0v0.1l0,0l0,0h-0.1h-0.1l0,0l-0.1,0.1l0,0l0,0l0,0l0,0
	L36.6,112.3z M38.2,111.5L38.2,111.5l0.2,0.1l0,0L38.2,111.5z"/>
<polygon fill="#FFFF9D" points="57.5,121.2 57.3,120.5 56.5,120.4 56.2,120.1 56.4,113 56.8,112.2 56.4,111.8 56,111.8 56.1,110.7 
	56.5,110.4 56.3,109.3 56,108.9 56.4,107.9 56,106.7 56.3,106.3 56.1,105.7 56.4,105.5 56,105.2 56.8,104.5 57.2,103.8 57.1,103.2 
	57.6,102.8 58.3,101.6 59,101.8 59.1,102.2 60.9,102.5 61.9,102.2 62.4,101.9 63.3,102.1 64,101.8 64.3,101.8 65.3,101.3 66.2,101 
	66.5,100.7 66.9,100.9 67.3,100.8 67.8,102.6 69,106.2 69.2,106.5 69.2,111.4 69.2,115.1 68.7,115.1 67.9,114.5 67.1,115 
	66.5,114.8 65.9,115 65.2,115.5 64.4,115.6 64.1,116.1 63.4,116.2 63,116.5 62.8,117.1 62.3,117.3 57.9,121.6 "/>
<polygon fill="#BEEB9F" points="47,114.6 47.3,114.2 46.3,113.3 44.2,113 44,112.7 43.4,112.6 43.5,112.3 42.9,111.8 42.7,111.1 
	42.1,110.8 41.8,110.3 40.7,110.5 40.3,110.2 39.6,110.3 38.6,109.3 39,108.8 39.6,108.7 39.9,108.2 39.9,107.9 40.3,108 
	41.5,107.5 42,106.7 42.3,106.6 43.3,106.8 43.7,107.3 44.2,107.6 44.9,107.1 46.7,106.7 49.6,107.3 51,107.8 51.8,107.9 
	52.5,107.8 53.1,108.2 54,107.8 53.5,107.3 54,106.8 54,106 54.3,105.9 54.7,106.2 55.1,105.8 55.9,105.8 56,106.3 55.7,106.7 
	56.2,107.9 55.7,108.9 56,109.4 56.2,110.3 55.9,110.6 55.7,112.1 56.3,112 56.5,112.3 56.2,113 47.9,115.3 "/>
<polygon fill="#DF5A49" points="62.7,130.2 62.1,130.1 61.7,129.6 61.6,129.5 61.3,129.9 60.7,129.9 60.1,129.4 59.5,129.9 
	59.4,130.3 59.3,130.3 58.9,128.6 58.4,128.2 58.2,127 58.4,126.7 58.9,126.7 59.3,126.2 58.9,124.9 59.2,124.3 59.3,124.2 
	58.2,123.9 58,123.3 58.3,122.9 57.8,122.2 58,121.9 62.5,117.5 63,117.3 63.2,116.7 63.5,116.5 64.3,116.3 64.5,115.9 65.3,115.7 
	66,115.2 66.5,115.1 67.2,115.3 67.9,114.8 68.6,115.3 69.4,115.4 69.5,115.4 69.4,111.4 69.5,106.7 74.8,112.9 80.1,118 67.9,124 
	67.7,124.3 68,125.5 68.1,125.5 62.9,130.7 "/>
<polygon fill="#EFC94C" points="36.8,115.3 36.6,113.6 37.2,113.4 37.3,113 37.5,113.1 38.5,112.9 38.8,113 39.1,113.5 39,114.3 
	39.5,115 39.2,115.4 "/>
<polygon fill="#348899" points="48.1,121.9 47.4,122 47,121.9 46,121.8 45.8,121.1 44.9,121 44.6,119.9 44.1,118.8 44.1,118.4 
	43.8,116.6 42.9,115.3 42.6,115.7 41.9,115.1 41.8,114.8 42.6,114.7 42.7,114.2 42.3,113.9 42.2,114.3 40.4,113.5 40.4,113.4 
	40.4,113.4 41.4,113.5 41.8,113.8 41.9,113.6 41.4,113.2 40.5,113.1 40.4,112.9 41.2,112.4 41,111.5 40.7,111.3 40.8,110.7 
	41.6,110.6 41.9,111 42.5,111.3 42.7,111.9 43.2,112.4 43.1,112.8 43.9,112.9 44.1,113.2 46.2,113.5 47,114.3 46.7,114.7 
	47.9,115.6 56.1,113.2 56,120.2 56.4,120.6 57.1,120.8 57.3,121.3 57.6,121.7 49.7,121.5 49.3,121.8 48.5,122.2 "/>
<polygon fill="#979C9C" points="86.7,128.8 85.4,128.3 84.8,127.7 84.7,127 82.9,124 82.6,123.3 82.7,122.7 81.9,121.3 81.9,121 
	80.5,118.1 80.8,117.5 80.4,117.1 80.4,116.9 81,117.1 81.6,117.9 82.2,117.3 81.4,115.7 82.1,115.5 82.4,115.7 82.6,115.7 
	82.6,115.3 83,115.4 83.8,114.9 84.6,114.7 84.7,114 85.8,114.4 86.6,113.5 86.8,113.2 87.2,113.5 87.8,113.5 89.1,114.3 
	89.4,114.7 90.3,115 91.1,114.6 91.4,115 91.9,114.7 92.4,115 93.6,114.5 93.7,114.3 94.6,114.1 95.8,113.4 95.6,112.9 96.8,112.2 
	97,111.5 97.3,111.2 97.9,111.2 98.7,112.1 99.2,112.3 99.6,112 100.5,112.5 100.6,113 101.2,112.8 101.6,113.1 101.6,113.4 
	102.3,114 102.5,114.2 96.9,119.9 96.9,121.6 96.2,121.6 96.2,122.4 95.5,122.4 95.5,123.6 93.3,123.6 87.3,129.6 "/>
<polygon fill="#00A388" points="81.1,139.7 80.7,140 80.4,139.1 79.9,138.7 79.5,138.6 79,138.1 79,137.7 78.8,137.4 79.1,136.9 
	78.6,136.1 78.4,135.3 78.1,135 77.8,134.3 77.2,133.8 77.2,133.4 78.5,132.2 78.5,132.2 79.9,131.8 80.4,131.4 81.3,131.5 
	82.7,130.7 83.7,130.5 86.2,130.4 87.3,130 93.4,123.8 95.7,123.8 95.7,122.7 96.5,122.7 96.5,121.8 97.2,121.8 97.1,120 
	102.6,114.5 103,115.2 103.5,115.4 103.6,115.7 103.7,115.8 104.1,115.7 104.5,116 104.6,116.1 105,115.5 106.5,115.5 107.6,116.7 
	107.7,117.4 108.3,118.1 108.2,118.7 108.5,119.2 102.5,125.3 102.5,126 102.1,126.4 102.3,127 102.3,128.1 102.2,128.3 
	102.2,129.2 101.9,129.6 101.1,130.5 100.5,130.1 100.1,130.6 99.6,130.7 99.5,130.7 99.3,131.5 99.1,131.3 99.2,131 98.6,130.5 
	98.2,131.1 97.6,130.6 97.2,131.6 97.8,131.9 97.5,132.2 97.4,132.7 96.5,132.6 96.2,133.7 96,133.3 95.4,133.5 95.4,134.1 
	94.7,134.2 93.7,135.4 93.8,136 93.5,136.2 92.7,137.2 92.7,137.8 92,138.4 91.7,138 91.4,138.4 90.7,138.1 90.6,138.4 89.8,138.5 
	89.5,138.8 89,138.9 88.8,138.7 88.7,138.6 87.8,139.3 86.8,139.1 85.8,139.4 85.1,139.8 84.8,139.5 84.4,140.2 84.2,139.9 
	83.4,140.3 83.4,140.5 82.7,140.4 82.1,140.5 "/>
<polygon fill="#FFFF9D" points="40.3,130.8 40,130.9 39.7,130.2 39.4,130 39.2,129.4 38.4,128.8 38.2,127.5 38.4,127.1 38.7,124.7 
	38.2,123.7 37.8,122.5 37.8,121.9 37.6,121.1 36.5,120.5 36.3,119.9 36.5,119.5 36.5,118.4 36.8,118.3 36.9,116.7 36.8,115.6 
	38.8,115.6 39.1,116.4 39,117.6 39.3,117.7 39,118.2 39.5,118.6 40.3,118.7 40.6,119.1 41.5,119.2 41.8,119.7 42.8,120.2 
	42.8,120.5 43.6,121.2 44.2,121.2 44.4,121.9 44.2,122.2 43.4,122.2 42.9,122.7 42.8,123.9 42.5,124.6 42.9,125.5 42.6,125.8 
	43.4,126.3 43.5,126.7 43.5,128.4 41.6,128.3 41.6,129 40,129 40.1,130.2 40.5,131 "/>
<polygon fill="#8D719D" points="68.9,140.9 64.6,138.6 64.4,137.9 63.4,136.6 62.9,136.6 62.8,136.4 63.2,135.5 62.6,134.9 
	62.8,134.2 62.6,133.7 63,133.6 63.3,132.7 62.8,132.2 63.2,131.3 63,131 68.6,125.5 68.2,125.3 67.9,124.3 68.1,124.1 80.3,118.2 
	81.7,121 81.7,121.4 82.5,122.7 82.4,123.3 82.7,124.2 84.5,127.1 84.6,127.8 85.3,128.5 86.5,129 87.1,129.8 86.1,130.2 
	83.7,130.2 82.6,130.5 81.2,131.2 80.4,131.2 79.8,131.6 78.6,132 78.5,132 78.4,131.9 75.7,134.6 76,134.9 75.9,135.7 74.7,135.7 
	69.1,141.1 "/>
<polygon fill="#962D3E" points="81.4,162.6 81.4,162.3 80.9,161.9 80.8,161.6 80.8,161.5 79.8,161.2 79.3,161.3 79,160.9 
	78.4,160.5 77.9,160.1 77.3,159.9 77.3,159.7 76.1,158.9 76.1,158.2 74.8,157.7 74.4,156.5 75.3,155.4 74.8,154.6 74.2,154.1 
	74.2,153.7 74.1,153.1 74.6,152.5 75.1,152.5 76,152.2 76,147.8 75.7,147.8 69.3,141.3 74.8,135.9 76.2,135.9 76.3,134.7 
	76.1,134.6 76.9,133.8 76.9,133.9 77.6,134.4 77.9,135.1 78.2,135.4 78.3,136.2 78.8,136.9 78.5,137.4 78.8,137.7 78.7,138.2 
	79.4,138.9 79.8,138.9 80.2,139.3 80.6,140.4 81.1,140 82,140.8 82.7,140.6 83.7,140.8 83.7,140.5 84.1,140.2 84.4,140.7 
	84.9,139.9 85.1,140 85.9,139.6 86.8,139.3 87.8,139.6 88.7,138.9 89,139.1 89.7,139.1 89.9,138.7 90.7,138.6 90.8,138.4 
	91.5,138.6 91.7,138.4 92,138.7 93,137.9 92.9,137.3 93.7,136.4 94.1,136.1 93.9,135.4 94.8,134.4 95.5,134.4 95.7,134.4 
	95.6,133.7 95.9,133.6 96.3,134.2 96.7,132.9 97.7,133 97.7,132.3 98.1,131.9 98.2,131.8 97.6,131.5 97.7,131 98.3,131.4 
	98.6,130.8 98.9,131 98.8,131.4 99.5,131.9 99.7,130.9 100.2,130.8 100.5,130.5 101.1,130.8 102.1,129.7 102.4,129.2 102.4,128.4 
	102.6,128.2 102.5,126.9 102.3,126.5 102.7,126.1 102.7,125.4 108.6,119.4 109.7,120.1 110,119.9 110.5,120.3 110.8,120.3 
	111.1,120.9 111.9,121.5 112,122 112,122.1 113.3,121.8 113.7,122.4 114,123.1 113.6,123.4 113.4,124.2 113.8,124.8 113.4,125.5 
	114.6,126.3 115,126 116,127.6 115.7,128 115.7,129.1 116,129.5 115.9,130 116.3,130.9 117.7,130.9 118.2,131.5 118.9,131.6 
	119.5,132 120.3,132.7 120.7,132.7 120.8,133.2 121.2,133.8 121.2,134.5 122,136.1 122.5,137.3 122.3,137.7 122.5,138.3 
	121.9,138.5 121.9,139 122.3,139.7 122.2,139.9 122.3,140.6 121,140.7 121,140.8 118.5,140.9 118.5,141.1 114.9,141.1 109.6,141.1 
	109.5,143.3 107.5,143.3 104.1,143.3 102.8,143.3 102.8,145.6 99.6,145.5 97.3,147.8 95.5,149.5 95.4,149.3 94.4,149.6 93.6,149.7 
	93.5,150.1 89.1,150.1 89.1,156 81.7,162.9 "/>
<polygon fill="#EFC94C" points="55.5,136.9 55.5,136.4 54.5,135.8 54.2,136 53.7,135.2 53.2,135 53.1,134.6 52.5,134.4 52.7,133.9 
	51.8,132.9 50.7,132.3 50.6,132 50,131.6 48.6,131.1 47,130.3 46.3,129.7 46.3,129.2 45.7,128.5 44.7,127.9 44.5,127.4 43.8,126.8 
	43.8,126.6 43.6,126.1 43,125.8 43.2,125.6 42.8,124.6 43.1,123.9 43.1,122.8 43.5,122.4 44.3,122.5 44.6,122.1 45.6,122.7 
	46.3,122.3 47,122.1 47.4,122.3 48.1,122.2 48.5,122.5 49.5,122 49.8,121.7 57.7,121.9 57.5,122.2 58,122.9 57.7,123.3 58,124.2 
	58.9,124.4 58.7,124.9 59,126.2 58.8,126.5 58.3,126.5 57.9,126.9 58.2,128.3 58.7,128.7 59.1,130.5 59.7,130.5 59.7,130 
	60.1,129.7 60.6,130.1 61.4,130.2 61.6,129.9 62,130.3 62.5,130.4 62.7,131 62.9,131.3 62.5,132.2 63,132.7 62.8,133.4 62.2,133.6 
	62.6,134.2 62.3,134.9 62.3,135 62.7,135.4 58.8,135.3 58.2,134.5 57.7,134.8 57.3,134.6 56.7,135.7 55.8,136.6 55.7,136.9 "/>
<polygon fill="#8D719D" points="130.7,165.3 130.9,165 130.7,163.9 131.2,163.1 131,161.7 130.4,161.2 130.7,160.6 130.1,160 
	129.8,159.1 129.6,158.1 129.2,157.7 129.2,156.7 129.4,156.4 129.4,155.7 128.4,154.6 128.4,154.2 128.1,153.6 128,152.5 
	128.2,152.3 128.5,151.3 128.5,151.2 128,151.1 127.8,150.6 127.2,150.2 127.6,149.9 127.6,149.4 127.6,149.4 127.2,148.9 
	126.5,149.1 126.1,149 126,148.4 125.3,147.6 125.5,146.8 125.2,146.2 124.4,145.7 124.4,145 124.8,144.8 123.7,143.9 123.8,143.6 
	123.4,143.3 123.4,142.7 123.1,142.7 123.1,142.3 123.4,142 123.3,141.4 122.6,140.7 122.4,139.9 122.5,139.7 122.6,139.7 
	122.2,138.9 122.2,138.7 122.8,138.4 122.6,137.7 122.7,137.3 122.3,136 121.4,134.5 121.4,133.7 121,133.1 120.9,132.4 
	120.4,132.5 119.6,131.8 119,131.3 118.3,131.3 117.8,130.7 116.5,130.6 116.1,130 116.3,129.5 116.3,129.4 115.9,129 115.9,128 
	116.3,127.7 116.3,127.6 115.1,125.7 114.6,126 113.8,125.4 114.1,124.8 113.6,124.2 113.8,123.5 114.2,123.2 114.3,123.1 
	114,122.5 119.2,122.4 124.7,122.3 133.3,122.1 161.8,147.2 180.3,163.4 178.6,163.5 178.6,163.9 169.4,164.3 153.6,164.9 
	146.6,165.1 138.5,165.2 132.2,165.4 132.3,165.7 130.7,165.7 "/>
<polygon fill="#979C9C" points="49.6,136 49,135.1 48.2,134.7 47.6,134.8 47.2,135.2 46.1,135 46,135.3 45.3,135.4 44.5,135.2 
	43.5,134.6 43.4,134.4 42.1,133.3 41.1,131.5 40.8,131.2 40.8,131.1 40.4,130.1 40.3,129.3 41.9,129.2 41.9,128.6 43.7,128.6 
	43.8,127.1 44.3,127.5 44.5,128.1 45.5,128.7 46,129.3 46.1,129.8 46.9,130.5 48.5,131.4 49.9,131.8 50.4,132.2 50.6,132.5 
	51.7,133.1 52.4,133.9 52.2,134.5 52.9,134.7 53,135.2 53.6,135.4 54,136.2 54.1,136.3 54.5,136.1 55.2,136.5 55.2,136.8 
	54.8,136.8 54.4,136.5 54.3,136.4 54.1,136.8 53.9,136.4 53.3,136.7 52.7,136.4 51.9,136.5 51.3,137.2 51.1,137.1 50.6,137.9 "/>
<polygon fill="#BEEB9F" points="72.4,155.2 72.3,154.9 71,153.8 70.5,153 69.7,152.9 69,152.3 68.3,153.3 67.6,152.8 67.4,153.4 
	66.7,153.6 66.6,153.5 66.6,152.1 63.4,148.8 62.9,148.1 62.7,148.1 62.5,147.2 61.2,147.2 61.3,146.8 60.9,146.1 60.6,145.9 
	60.5,145.5 60.9,144.6 60.2,143.5 59.8,143.3 59,143.2 58.8,142.8 58.1,142.8 57.7,142.3 57.5,141.9 58.2,141.6 57.4,140.3 
	56.9,140.5 55.1,138.5 54.5,138.2 54.2,137.6 54.2,137.1 54.4,136.8 54.7,137 55.3,137.1 55.9,137.2 56,136.7 56.9,135.9 57.4,135 
	57.8,135.1 58.1,134.8 58.7,135.6 62.8,135.6 62.5,136.4 62.8,136.9 63.3,136.8 64.2,138.1 64.4,138.8 68.8,141.1 69.1,141.4 
	75.6,148 75.7,148 75.7,152 75,152.3 74.5,152.3 73.9,153.1 73.9,153.4 73.1,152.8 72.8,153.5 73.2,153.9 73.4,155.2 73.2,155.4 "/>
<polygon fill="#E27A3F" points="73.4,166 65.4,165.8 59.8,165.7 59.1,165 58.6,164.2 57.5,163.3 57.1,161.2 56.8,160.4 56,159.9 
	55.2,159.7 54.6,158.5 54,157.2 53.1,156 52.3,155.2 51.1,154.4 50,153.9 49.6,153.2 48.5,152.2 48.7,151.4 48.4,151 48.5,150.4 
	48,148.6 47.6,146.8 48.1,146.7 48,145.6 47.2,145.3 47.4,144.4 47.8,144.2 47.9,143.8 48.4,144.2 48.6,144.7 49.1,144.7 49.9,144 
	50.3,143.2 50.7,141.8 50.7,140.8 51.1,139.2 50.7,138.2 51.2,137.4 51.4,137.4 52,136.7 52.7,136.6 53.3,137 53.8,136.8 
	53.9,137.1 53.9,137.6 54.4,138.4 54.9,138.7 56.9,140.8 57.3,140.6 57.8,141.5 57.2,141.7 57.5,142.5 58.1,143 58.6,143 
	58.8,143.5 59.7,143.5 60,143.7 60.6,144.6 60.3,145.5 60.4,146.1 60.8,146.3 61.1,146.8 61,147.3 60.9,147.4 62.3,147.5 
	62.6,148.4 62.8,148.3 63.2,148.9 66.4,152.2 66.4,153.6 66.7,153.8 67.6,153.7 67.7,153.2 68.3,153.6 69,152.7 69.6,153.1 
	70.4,153.3 70.8,154 72.1,155 72.2,155.4 73.3,155.6 73.7,155.3 73.4,153.8 73.1,153.4 73.2,153.2 74,153.7 73.9,154.2 74.6,154.7 
	75,155.3 74.2,156.4 74.6,157.9 75.8,158.4 75.9,159 77.1,159.8 77.1,160.1 77.8,160.3 78.2,160.7 78.8,161.1 79.2,161.6 
	79.8,161.4 80.6,161.7 80.7,162.1 81.1,162.4 81.1,162.7 81.6,163.2 82.5,163.3 83.1,164 83.2,164.2 82.8,164.7 83,165.2 
	83.6,165.5 83.7,166.1 "/>
<polygon fill="#334D5C" points="98.3,161.6 98.3,157.2 98.4,157.2 98.4,153.8 99.6,153.8 99.6,150.1 98.4,150.1 98.4,147.8 
	97.6,147.8 99.7,145.8 103.1,145.8 103.1,143.5 104.1,143.5 107.5,143.6 109.8,143.6 109.8,141.4 114.9,141.4 118.7,141.3 
	118.7,141.1 121.3,141.1 121.3,140.9 122.5,140.9 123.1,141.5 123.1,141.9 122.8,142.2 122.9,143 123.2,143 123.1,143.4 
	123.5,143.7 123.4,144 124.3,144.8 124.1,144.9 124.1,145.9 125,146.3 125.3,146.9 125,147.7 125.8,148.5 125.9,149.2 126.5,149.3 
	127.1,149.2 127.4,149.5 127.3,149.8 126.9,150.1 126.8,150.2 127.6,150.7 127.9,151.3 128.2,151.4 128,152.2 127.8,152.4 
	127.7,152.4 127.9,153.7 128.2,154.3 128.1,154.6 128.1,154.7 129.2,155.8 129.2,156.3 128.9,156.6 129,157.8 129.4,158.2 
	129.5,159.2 129.9,160.1 130.4,160.7 130.1,161.3 130.8,161.8 130.9,163 130.4,163.8 130.6,165 130.4,165.3 130.5,165.7 
	124.2,165.7 120.8,165.7 118.7,165.8 98.3,166 "/>
<polygon fill="#FFFF9D" points="84,166.1 83.8,165.3 83.2,165 83,164.8 83.4,164.2 83.4,163.9 82.6,163 82,163 89.3,156.1 
	89.4,150.4 93.7,150.3 93.8,150 94.5,149.9 95.2,149.6 95.3,150 97.4,148 98.2,148 98.2,150.3 99.3,150.3 99.3,153.5 98.2,153.5 
	98.2,157 98,157 98.1,161.6 98.1,166 93.6,166 91.3,166.1 84.3,166.1 "/>
<polygon fill="#962D3E" points="136.6,213.6 136.2,212.9 136.5,212.3 136.9,212.3 136.9,211.8 137.6,211.9 138.7,208 139.4,204.7 
	139,200.4 138.9,197.5 138.7,197.5 138.6,190.9 139.3,190.9 139.1,183.7 139.2,183.6 139,176.7 138.9,174.5 139,174.4 138.9,171.3 
	138.8,171.3 138.7,169.3 139.1,169.3 139.1,168.3 138.3,168.3 138.3,167.8 138.7,167.8 138.7,165.5 146.6,165.3 153.6,165.1 
	169.4,164.6 178.9,164.2 178.9,163.8 180.6,163.7 196.7,177.9 203.1,183.5 203.1,184.5 203.3,185.1 203.2,186.6 203.3,187 
	204.3,187.7 205.1,189.4 206.2,190.4 207.1,191 208.1,193.6 207.9,193.8 208.6,194.4 209.2,195.4 209.3,196 209.2,197.4 
	209.6,197.7 210.4,197.5 211.2,198.1 211.4,198.6 212,198.7 212.8,199.6 213.5,199.7 214,200 214.4,200.7 214.9,201.1 215,202.1 
	214.4,202.2 213.1,203.7 213.1,204 212.6,204.4 211.9,204.5 211,205.6 210.5,205.6 210.1,206.1 209.2,206.3 208.8,207.1 202,207.5 
	195.6,207.8 189.7,208.2 189.7,209.3 175.4,209.9 172.8,210.1 168.4,210.2 168.4,210.3 161.7,210.5 158.8,210.6 154.8,210.7 
	154.8,211.5 151.6,211.6 148.7,211.7 148.7,211.3 145.4,211.4 145.4,211 141.2,211.1 141.2,212.4 140.1,212.8 140.1,214 139.1,214 
	139.2,215 138.8,215.1 138.8,215.3 "/>
<polygon fill="#BEEB9F" points="110.5,192 110.4,191.4 104.8,191.4 104.7,190.3 104,190.3 104,189.9 101.7,189.9 101.7,189.2 
	99.8,189.2 99.8,184.6 99.4,184.6 99.4,184.2 97.9,184.3 98.1,181.9 95.6,182.1 95.6,179.8 92.6,179.8 92.6,177.5 91.1,177.5 
	91.1,175.2 88.6,175.2 88.6,174.4 88.2,174.4 88.2,174 87.8,174 87.8,173.7 87.4,173.7 87.4,173.3 86.7,173 86.7,170.6 84.4,170.6 
	84.4,166.3 91.3,166.3 93.6,166.3 98.2,166.3 118.7,166.1 120.8,166 124.2,166 130.6,165.9 132.5,165.9 132.5,165.6 138.4,165.5 
	138.5,167.5 138.1,167.5 138.1,168.5 138.9,168.5 138.9,169 138.5,169 138.5,171.6 138.6,171.6 138.7,174.3 138.6,174.4 
	138.7,176.7 138.9,183.5 138.9,183.6 139.1,190.6 138.4,190.7 131.6,190.8 127,191 121.3,191.1 112.9,191.3 112.9,191.6 
	112.4,191.6 112.3,192 "/>
<polygon fill="#979C9C" points="97.3,188.6 96.7,188 96,187.8 95.7,187.5 94.8,187.3 93.8,187.3 93.1,186.9 92.1,186.5 91.6,185.9 
	91,185.6 90.4,185.7 89.9,185.1 89.6,185.2 88.6,185 87.6,184.3 87,184.1 86.4,183.6 85.4,184.1 85.2,184.5 84.7,184.7 84.3,185.9 
	83.4,186.1 83.1,185.9 83,185.8 82.7,186.1 81.7,186.5 81.3,186.1 81.1,186.9 81.8,187.8 82,188.6 81.9,189.1 81.7,189.1 
	81.6,188.8 80.4,187.8 79.1,187 77.8,186.8 76.9,187 76.7,187.3 76.1,187.2 74.8,187.6 74.6,187.4 74.9,186.1 75,185.1 75,183.9 
	74.6,182.8 73.8,182.4 73.6,182.2 72.7,181.9 72.1,182.1 72.1,182.3 71.8,182.2 69.9,180.8 69.3,180.1 69.4,179.6 70.1,178.4 
	70.6,178.5 70.3,177 70.1,176.9 70,176.2 69.7,175.4 69.2,174.9 68.4,174.9 67.8,174.6 67,174.5 66.2,173.4 65.1,172.2 64.6,171.1 
	63.8,170 62.9,169.9 62.5,169.5 61.2,169.1 61.1,168.6 60.6,167.9 60.6,166.9 60,166 65.4,166.1 73.4,166.2 84.1,166.3 84.1,170.9 
	86.4,170.9 86.4,173.1 87.2,173.5 87.2,173.9 87.6,173.9 87.6,174.3 88,174.3 87.9,174.7 88.3,174.7 88.3,175.4 90.8,175.4 
	90.8,177.7 92.3,177.7 92.3,180 95.4,180 95.4,182.3 97.8,182.2 97.6,184.6 99.2,184.5 99.2,184.9 99.5,184.9 99.6,189.2 
	98.4,189.3 "/>
<polygon fill="#DF5A49" points="99.6,202.8 98.4,202.4 97.9,201.9 96.8,201.7 95.2,201.9 94.6,202.4 94.2,202.4 92.9,201.8 
	92,201.9 91.7,202.2 91,202.1 90.1,201.4 89.3,201.4 88.3,200.7 86.5,200.7 85.9,200.5 83.3,200.5 82,200.4 81,200.7 78.3,201 
	78.2,200.3 77.8,199.8 77.5,199.1 75.9,198.2 75,198.2 74.6,197.7 75.3,195.7 75.6,194.5 75.3,193.6 74.8,193.1 75.1,192.2 
	75.4,190.8 75.4,190.3 74.8,189.8 74.6,189.2 74.2,189.2 74.5,187.7 74.8,187.9 76.1,187.4 76.8,187.5 77,187.2 77.8,187 79,187.2 
	80.3,188 81.4,188.9 81.6,189.4 82.1,189.3 82.3,188.6 82,187.7 81.4,186.8 81.4,186.6 81.6,186.7 82.8,186.3 83,186.1 83.4,186.3 
	84.4,186.1 84.9,184.9 85.4,184.7 85.6,184.3 86.4,183.9 86.9,184.3 87.5,184.6 88.5,185.2 89.6,185.5 89.9,185.4 90.3,185.9 
	91,185.9 91.5,186.1 91.9,186.7 93,187.1 93.8,187.6 94.8,187.5 95.5,187.7 95.9,188.1 96.6,188.2 97.2,188.8 98.3,189.5 
	99.7,189.4 100.2,189.4 100.3,201 100,201.9 100.1,202.5 99.7,202.9 "/>
<polygon fill="#8D719D" points="110,210.9 109.4,210.5 108.7,210.4 108.2,210.1 107.2,210 106.1,209.1 105.4,208.8 104.6,207.2 
	104.2,206 102.8,205.1 102.1,204.3 101.6,204.4 100.1,203 99.9,203 100.3,202.5 100.3,201.9 100.5,201 100.4,189.4 101.5,189.4 
	101.5,190.1 103.8,190.2 103.7,190.6 104.5,190.5 104.5,191.7 110.2,191.7 110.2,192.3 112.3,192.3 115.3,199.3 117.7,205.1 
	117.8,206.2 117.1,206.2 117.1,208.1 114.6,208.2 111.2,210.7 111.1,211.3 "/>
<polygon fill="#348899" points="123.6,219.1 123,219.1 122.7,218.4 123.4,217.7 123.5,216.8 122.3,214.1 121.9,213.2 121.2,212.3 
	120,211.5 117.9,211.5 117.3,211.5 116.9,211.7 115.8,211.7 114.8,212 114.2,212.4 113.4,211.7 111.4,211.4 111.4,210.8 
	114.7,208.4 117.3,208.4 117.3,206.5 118.1,206.5 118,205 115.5,199.3 112.5,192.1 112.6,191.9 113.1,191.9 113.1,191.5 
	121.3,191.4 127,191.2 131.6,191.1 138.3,190.9 138.5,197.8 138.6,197.8 138.7,200.4 139.1,204.7 138.5,208 137.4,211.6 
	136.7,211.5 136.7,212 136.3,212 135.9,212.9 136.3,213.5 132.2,213.6 132.2,214.8 131.9,215 131.5,215.5 131.2,215.6 130.5,216.3 
	130.4,217.1 129.9,217.4 129.6,218.2 129.7,218.6 129.4,218.9 128,218.4 127.4,218.9 127,218.3 126.1,218.4 125.8,218.8 
	125.9,219.7 125.4,219.9 "/>
<polygon fill="#BEEB9F" points="148.7,226.2 145.9,225.2 146.1,224.8 142.8,224.9 142.8,224.2 144.9,220.9 143.4,219.7 142.2,219.6 
	142.1,218.4 141.1,218.1 139,215.5 139,215.3 139.4,215.2 139.4,214.3 140.4,214.3 140.3,213 141.5,212.5 141.4,211.4 145.1,211.3 
	145.2,211.7 148.4,211.6 148.4,212 151.6,211.9 155.1,211.7 155.1,211 158.8,210.9 161.7,210.8 168.7,210.5 168.7,210.5 
	172.8,210.3 175.4,210.2 190,209.5 190,208.4 195.6,208.1 202.1,207.7 208.8,207.3 208.8,208.3 208.7,208.7 208.1,209.1 
	208.3,209.3 207.5,210.3 207.1,210.5 206.8,211.4 207.4,211.9 207.6,212.8 207,213 207.3,213.9 207.2,214.2 207.7,215.5 
	207.6,216.2 208,216.7 207.9,217.2 207.4,217.5 207.3,217.9 207.3,218 207.5,218.2 207.3,218.4 207.6,219.5 207.2,220.1 207.6,221 
	206.9,221.5 206.9,221.9 206.3,222.3 205.6,223.6 205.6,224.1 201.1,224.4 201.1,224.5 192.5,225 187.2,225.2 187.2,225.2 
	173.9,225.9 171.4,225.9 169.1,226 157.8,226.5 153.4,226.6 153.2,226.5 150.9,226.5 148.8,226.6 "/>
<polygon fill="#00A388" points="140.2,226.9 139.1,226.1 138.3,226 137.5,224.9 136.8,224.1 136,223.8 135.5,223.3 135,223 
	134.4,222.3 134,222.5 132,221.2 130.7,219.9 130.8,219.3 130.3,219.4 129.7,219 130,218.7 129.8,218.2 130.1,217.6 130.6,217.2 
	130.7,216.4 131.3,215.8 131.6,215.8 131.6,215.8 132,215.1 132.4,215 132.4,213.9 136.5,213.8 138.9,215.7 141,218.3 141.9,218.6 
	141.9,219.8 143.3,220 144.6,221 142.6,224.2 142.6,225 142.6,225.8 142.1,226.2 141.2,226.3 140.8,227.8 "/>
<polygon fill="#8D719D" points="174.3,244.3 174.4,244.2 174,235.3 174.5,235.2 174.4,232.5 174.1,228.2 174,226.1 187.5,225.5 
	187.5,225.4 192.5,225.2 201.4,224.7 201.4,224.6 205.4,224.4 205.2,224.6 204.4,224.6 203.6,225.2 203.5,225.2 204.1,226.3 
	204,227.2 203.4,227.8 203.8,228.3 204.7,228.6 204.8,228.8 204.4,229.2 204.8,229.7 204.8,231.3 204.3,233.1 204.7,233.5 
	205.5,235 205.8,234.5 206.4,234.9 207.1,234.9 207.5,234.6 208.6,234.7 209,235.3 209.3,236.2 209.7,236.2 209.5,236.9 210,237.8 
	209.9,239.3 209,240 208.6,240.7 208.7,241.6 208,241.8 207.6,242.2 206.9,242.4 205.4,242.3 205.1,242.1 205,242 204.6,242.8 
	187.6,245.1 174.4,246.9 "/>
<path fill="#EFC94C" d="M151.8,249.1l-0.1-1.2v-0.1l0.3,0.6l0.6-0.5l-0.7-1.2l0.1-0.3v-0.1l-1.3-1.1v-0.3v-0.1h-1l-0.6,0.3v1.1
	l-0.3-1.2l0.1-0.7l0.3-0.1l0.4-0.7l0.1-0.2l-0.7-0.1l-0.8-0.8v-0.3l0.3-0.2l0.3-0.8l-0.1-0.8l-0.6-2.7l-0.4-1l-0.6-1.8l-0.9-1.5
	l-0.7-0.9l-1.8-2.5l-0.8-0.8l-0.9-0.7l-1-0.5l0.3-1.6l0.8-0.1l0.8-0.5v-0.9l2.9-0.1l-0.1,0.3l2.9,1v0.5l2.4-0.1h2.2l0.1,0.1l4.5-0.1
	l11.4-0.4l2.3-0.1h2.3l0.1,2.1l0.3,4.2l0.1,2.5h-0.5l0.4,9.1l-0.1,0.1l0.1,2.7l-22.2,3L151.8,249.1z M150.2,246l-0.5,0.1V246
	l0.4-0.4l0.8,0.4l0.2,0.6L150.2,246z"/>
</svg>
